<svg width="88" height="72" viewBox="0 0 88 72" fill="none" xmlns="http://www.w3.org/2000/svg">
<path d="M4.25 48.5543C35.2174 49.9457 44 71.2065 44 71.2065C44 71.2065 52.7826 49.9457 83.75 48.5543L82.9891 64.3804C86.1848 58.2826 88 51.3587 88 44C88 19.7065 68.3043 0 44 0C19.6957 0 0 19.6957 0 44C0 51.3587 1.81522 58.2935 5.01087 64.3804L4.25 48.5543Z" fill="#F7EA2F"/>
<path d="M44 71.2065C44 71.2065 51.837 52.2826 78.7392 48.9783L77.9783 40C43.7718 52.25 44 71.2065 44 71.2065Z" fill="#27B373"/>
<path d="M10.0003 39.9351L9.22852 48.9785C35.2285 52.1524 43.435 69.9133 43.9676 71.1416C43.9676 71.1416 44.1959 52.1851 9.98939 39.9351H10.0003Z" fill="#27B373"/>
<path d="M44.5327 62.5324C44.5327 62.5324 48.2718 46.2606 74.1958 39.2063C74.1958 39.2063 50.5871 38.0541 44.5327 62.5324Z" fill="#271E3E"/>
<path d="M43.3807 62.2505C43.3807 62.2505 42.5111 41.6092 17.1851 28.4136L17.7503 34.0005C17.7503 34.0005 34.1307 39.6201 43.3807 62.2505Z" fill="#271E3E"/>
</svg>
